<svg width="136" height="24" viewBox="0 0 136 24" fill="none" xmlns="http://www.w3.org/2000/svg">
<path d="M105.284 8.27578L99.3328 7.41093L96.6726 2.01797C96.6 1.87031 96.4805 1.75078 96.3328 1.67812C95.9625 1.49531 95.5125 1.64765 95.3273 2.01797L92.6672 7.41093L86.7164 8.27578C86.5523 8.29922 86.4023 8.37656 86.2875 8.49375C86.1486 8.63645 86.0721 8.82843 86.0748 9.02752C86.0774 9.2266 86.159 9.41649 86.3015 9.55547L90.607 13.7531L89.5898 19.6805C89.566 19.8183 89.5812 19.9602 89.6339 20.0898C89.6865 20.2195 89.7744 20.3318 89.8876 20.414C90.0009 20.4962 90.1349 20.5451 90.2744 20.555C90.414 20.565 90.5536 20.5356 90.6773 20.4703L96 17.6719L101.323 20.4703C101.468 20.5477 101.637 20.5734 101.798 20.5453C102.206 20.475 102.48 20.0883 102.41 19.6805L101.393 13.7531L105.698 9.55547C105.816 9.44062 105.893 9.29062 105.916 9.12656C105.98 8.7164 105.694 8.33672 105.284 8.27578Z" fill="white"/>
<path d="M77.2836 8.27578L71.3328 7.41093L68.6726 2.01797C68.6 1.87031 68.4805 1.75078 68.3328 1.67812C67.9625 1.49531 67.5125 1.64765 67.3273 2.01797L64.6672 7.41093L58.7164 8.27578C58.5523 8.29922 58.4023 8.37656 58.2875 8.49375C58.1486 8.63645 58.0721 8.82843 58.0748 9.02752C58.0774 9.2266 58.159 9.41649 58.3015 9.55547L62.607 13.7531L61.5898 19.6805C61.566 19.8183 61.5812 19.9602 61.6339 20.0898C61.6865 20.2195 61.7744 20.3318 61.8876 20.414C62.0009 20.4962 62.1349 20.5451 62.2744 20.555C62.414 20.565 62.5536 20.5356 62.6773 20.4703L68 17.6719L73.3226 20.4703C73.468 20.5477 73.6367 20.5734 73.7984 20.5453C74.2062 20.475 74.4805 20.0883 74.4101 19.6805L73.393 13.7531L77.6984 9.55547C77.8156 9.44062 77.893 9.29062 77.9164 9.12656C77.9797 8.7164 77.6937 8.33672 77.2836 8.27578Z" fill="white"/>
<path d="M49.2836 8.27578L43.3328 7.41093L40.6726 2.01797C40.6 1.87031 40.4805 1.75078 40.3328 1.67812C39.9625 1.49531 39.5125 1.64765 39.3273 2.01797L36.6672 7.41093L30.7164 8.27578C30.5523 8.29922 30.4023 8.37656 30.2875 8.49375C30.1486 8.63645 30.0721 8.82843 30.0748 9.02752C30.0774 9.2266 30.159 9.41649 30.3015 9.55547L34.607 13.7531L33.5898 19.6805C33.566 19.8183 33.5812 19.9602 33.6339 20.0898C33.6865 20.2195 33.7744 20.3318 33.8876 20.414C34.0009 20.4962 34.1349 20.5451 34.2744 20.555C34.414 20.565 34.5536 20.5356 34.6773 20.4703L40 17.6719L45.3226 20.4703C45.468 20.5477 45.6367 20.5734 45.7984 20.5453C46.2062 20.475 46.4805 20.0883 46.4101 19.6805L45.393 13.7531L49.6984 9.55547C49.8156 9.44062 49.893 9.29062 49.9164 9.12656C49.9797 8.7164 49.6937 8.33672 49.2836 8.27578Z" fill="white"/>
<path d="M21.2836 8.27578L15.3328 7.41093L12.6726 2.01797C12.6 1.87031 12.4805 1.75078 12.3328 1.67812C11.9625 1.49531 11.5125 1.64765 11.3273 2.01797L8.66717 7.41093L2.71639 8.27578C2.55233 8.29922 2.40233 8.37656 2.28748 8.49375C2.14864 8.63645 2.07214 8.82843 2.07477 9.02752C2.07741 9.2266 2.15897 9.41649 2.30155 9.55547L6.60701 13.7531L5.58983 19.6805C5.56597 19.8183 5.58123 19.9602 5.63387 20.0898C5.68651 20.2195 5.77442 20.3318 5.88764 20.414C6.00086 20.4962 6.13486 20.5451 6.27444 20.555C6.41401 20.565 6.55359 20.5356 6.67733 20.4703L12 17.6719L17.3226 20.4703C17.468 20.5477 17.6367 20.5734 17.7984 20.5453C18.2062 20.475 18.4805 20.0883 18.4101 19.6805L17.393 13.7531L21.6984 9.55547C21.8156 9.44062 21.893 9.29062 21.9164 9.12656C21.9797 8.7164 21.6937 8.33672 21.2836 8.27578Z" fill="white"/>
<path d="M120.587 8.415L112.96 9.525L118.48 14.9025L117.175 22.5L124 18.915V1.5L120.587 8.415Z" fill="white"/>
</svg>
