<svg width="22" height="22" viewBox="0 0 22 22" fill="none" xmlns="http://www.w3.org/2000/svg">
<path d="M1.35689 1.35727C1.49042 1.2234 1.64905 1.11719 1.82369 1.04472C1.99833 0.972253 2.18556 0.934952 2.37464 0.934952C2.56372 0.934952 2.75094 0.972253 2.92559 1.04472C3.10023 1.11719 3.25886 1.2234 3.39239 1.35727L10.9996 8.9674L18.6069 1.35727C18.7405 1.22362 18.8992 1.1176 19.0738 1.04527C19.2485 0.972934 19.4356 0.935704 19.6246 0.935704C19.8137 0.935704 20.0008 0.972934 20.1754 1.04527C20.3501 1.1176 20.5087 1.22362 20.6424 1.35727C20.776 1.49092 20.8821 1.64959 20.9544 1.82422C21.0267 1.99884 21.064 2.18601 21.064 2.37502C21.064 2.56403 21.0267 2.7512 20.9544 2.92582C20.8821 3.10045 20.776 3.25912 20.6424 3.39277L13.0323 11L20.6424 18.6073C20.776 18.7409 20.8821 18.8996 20.9544 19.0742C21.0267 19.2488 21.064 19.436 21.064 19.625C21.064 19.814 21.0267 20.0012 20.9544 20.1758C20.8821 20.3505 20.776 20.5091 20.6424 20.6428C20.5087 20.7764 20.3501 20.8824 20.1754 20.9548C20.0008 21.0271 19.8137 21.0643 19.6246 21.0643C19.4356 21.0643 19.2485 21.0271 19.0738 20.9548C18.8992 20.8824 18.7405 20.7764 18.6069 20.6428L10.9996 13.0326L3.39239 20.6428C3.25874 20.7764 3.10007 20.8824 2.92544 20.9548C2.75082 21.0271 2.56365 21.0643 2.37464 21.0643C2.18563 21.0643 1.99846 21.0271 1.82384 20.9548C1.64921 20.8824 1.49054 20.7764 1.35689 20.6428C1.22324 20.5091 1.11722 20.3505 1.04488 20.1758C0.972552 20.0012 0.935323 19.814 0.935323 19.625C0.935323 19.436 0.972552 19.2488 1.04488 19.0742C1.11722 18.8996 1.22324 18.7409 1.35689 18.6073L8.96702 11L1.35689 3.39277C1.22302 3.25924 1.11681 3.10061 1.04434 2.92597C0.971872 2.75133 0.93457 2.5641 0.93457 2.37502C0.93457 2.18594 0.971872 1.99872 1.04434 1.82407C1.11681 1.64943 1.22302 1.4908 1.35689 1.35727Z" fill="white"/>
</svg>
